<svg width="283" height="61" viewBox="0 0 283 61" fill="none" xmlns="http://www.w3.org/2000/svg">
<circle cx="169.182" cy="35.4735" r="22" stroke="#333333" stroke-width="6"/>
<circle cx="258.007" cy="35.4735" r="22" stroke="#333333" stroke-width="6"/>
<path d="M113.31 35.4717C113.31 30.0475 115.314 24.8147 118.937 20.7781C122.561 16.7415 127.547 14.1857 132.94 13.6015" stroke="#333333" stroke-width="6"/>
<path d="M110.31 35.4735H116.31V57.4735C116.31 59.1303 114.966 60.4735 113.31 60.4735V60.4735C111.653 60.4735 110.31 59.1303 110.31 57.4735V35.4735Z" fill="#333333"/>
<path d="M132.442 10.6007H134.402C136.087 10.6007 137.452 11.9662 137.452 13.6507V13.6507C137.452 15.3352 136.087 16.7007 134.402 16.7007H132.442V10.6007Z" fill="#333333"/>
<path d="M202.134 35.4717C202.135 30.0475 204.139 24.8147 207.762 20.7781C211.385 16.7415 216.372 14.1857 221.765 13.6015" stroke="#333333" stroke-width="6"/>
<path d="M199.134 35.4735H205.134V57.4735C205.134 59.1303 203.791 60.4735 202.134 60.4735V60.4735C200.477 60.4735 199.134 59.1303 199.134 57.4735V35.4735Z" fill="#333333"/>
<path d="M221.267 10.6007H223.227C224.912 10.6007 226.277 11.9662 226.277 13.6507V13.6507C226.277 15.3352 224.912 16.7007 223.227 16.7007H221.267V10.6007Z" fill="#333333"/>
<path d="M99.3574 35.4735H105.357V57.4735C105.357 59.1303 104.014 60.4735 102.357 60.4735V60.4735C100.701 60.4735 99.3574 59.1303 99.3574 57.4735V35.4735Z" fill="#333333"/>
<circle cx="80.3574" cy="35.4735" r="22" stroke="#333333" stroke-width="6"/>
<circle cx="25.4058" cy="35.4735" r="22" stroke="url(#paint0_linear_502_421)" stroke-width="6"/>
<path d="M0.405762 8.68073C0.405762 7.02387 1.74891 5.68073 3.40576 5.68073V5.68073C5.06262 5.68073 6.40576 7.02387 6.40576 8.68073V35.6807H0.405762V8.68073Z" fill="#F9607D"/>
<defs>
<linearGradient id="paint0_linear_502_421" x1="32.4986" y1="41.6788" x2="11.5804" y2="29.4803" gradientUnits="userSpaceOnUse">
<stop stop-color="#6BE1FB"/>
<stop offset="1" stop-color="#F9607D"/>
</linearGradient>
</defs>
</svg>
