<svg width="26" height="29" viewBox="0 0 26 29" fill="none" xmlns="http://www.w3.org/2000/svg">
<path d="M4.44809 7.2389L4.44822 7.23879C5.3837 6.46319 6.47615 6.12514 7.7642 5.96569C7.76433 5.96567 7.76445 5.96566 7.76458 5.96564L7.79529 6.21375C7.96279 6.1925 8.13404 6.175 8.31279 6.16L4.44809 7.2389ZM4.44809 7.2389C3.51372 8.01468 2.97993 9.02699 2.58583 10.2641C2.20512 11.457 1.9198 12.9831 1.56599 14.8755L1.56597 14.8756L1.56579 14.8766L1.53972 15.0131L1.53957 15.0139C1.03839 17.6856 0.638997 19.8171 0.564281 21.5027L0.564277 21.5028C0.488004 23.238 0.744998 24.7239 1.76423 25.951C2.7834 27.1792 4.19644 27.7047 5.91496 27.95L5.91504 27.95C7.58259 28.1875 9.74316 28.1875 12.4528 28.1875H12.4728H13.529H13.5491C16.2574 28.1875 18.4192 28.1875 20.0856 27.95L20.0856 27.95C21.8041 27.7047 23.2184 27.1793 24.2376 25.951C25.257 24.7238 25.5113 23.2377 25.4363 21.503L25.4363 21.5029C25.3631 19.8228 24.9648 17.6996 24.466 15.0405L24.4613 15.0153L24.461 15.0139L24.4363 14.8778L24.436 14.8764C24.0808 12.9834 23.7942 11.456 23.4161 10.2644L23.4159 10.2639C23.0207 9.02717 22.4882 8.01476 21.5525 7.2389C20.6181 6.46315 19.5242 6.1238 18.2358 5.96561L18.2357 5.96561C18.1365 5.95344 18.0372 5.94232 17.9378 5.93224V5.75C17.9378 4.44049 17.4176 3.18462 16.4916 2.25866C15.5657 1.3327 14.3098 0.8125 13.0003 0.8125C11.6908 0.8125 10.4349 1.3327 9.50895 2.25866C8.58299 3.18462 8.06279 4.44049 8.06279 5.75V5.93192L4.44809 7.2389ZM8.05616 8.32309L8.05576 8.32314C7.01297 8.4512 6.41949 8.68934 5.96514 9.06721L5.96481 9.06749C5.51176 9.44297 5.16814 9.98185 4.84854 10.9845C4.52053 12.0164 4.25969 13.396 3.88851 15.3761L3.8885 15.3761C3.36707 18.155 3.00284 20.1129 2.93755 21.6072C2.87385 23.0649 3.11148 23.8545 3.59148 24.4354C4.07244 25.0135 4.80466 25.3916 6.25052 25.5975L6.25076 25.5975C7.72884 25.8094 9.72247 25.8125 12.549 25.8125H13.4515C16.2779 25.8125 18.2704 25.8094 19.7498 25.5988L8.05616 8.32309ZM8.05616 8.32309C9.13211 8.18921 10.535 8.1875 12.5503 8.1875H13.4503C15.4655 8.1875 16.8685 8.1892 17.9446 8.32186C18.9887 8.45115 19.5812 8.68929 20.0357 9.0662C20.49 9.44288 20.8324 9.98172 21.1521 10.9847C21.4813 12.0177 21.7409 13.3946 22.1121 15.376L22.1121 15.3761M8.05616 8.32309L22.1121 15.3761M22.1121 15.3761C22.6335 18.1549 22.9978 20.1143 23.0643 21.6061C23.1267 23.0669 22.89 23.856 22.4092 24.4353M22.1121 15.3761L22.4092 24.4353M22.4092 24.4353C21.9282 25.0135 21.196 25.3916 19.75 25.5987L22.4092 24.4353ZM13.0003 3.1875H13.0004C13.337 3.18735 13.6703 3.25352 13.9814 3.38223C14.2924 3.51094 14.575 3.69967 14.8131 3.93764C15.0512 4.1756 15.24 4.45814 15.3689 4.76911C15.4977 5.08008 15.564 5.41339 15.564 5.75V5.82105C14.9339 5.8125 14.2516 5.8125 13.5155 5.8125H13.514H12.4878H12.4863C11.7481 5.8125 11.0667 5.8125 10.4378 5.82104V5.75C10.4378 5.07038 10.7078 4.4186 11.1883 3.93804C11.6689 3.45748 12.3207 3.1875 13.0003 3.1875Z" fill="white" stroke="white" stroke-width="0.5"/>
</svg>
