<svg width="22" height="24" viewBox="0 0 22 24" fill="none" xmlns="http://www.w3.org/2000/svg">
<path d="M6.50033 14.3335C6.16977 14.3335 5.89249 14.2215 5.66849 13.9975C5.44449 13.7735 5.33288 13.4966 5.33366 13.1668C5.33366 12.8363 5.44566 12.559 5.66966 12.335C5.89366 12.111 6.17055 11.9994 6.50033 12.0002C6.83088 12.0002 7.10816 12.1122 7.33216 12.3362C7.55616 12.5602 7.66777 12.8371 7.66699 13.1668C7.66699 13.4974 7.55499 13.7747 7.33099 13.9987C7.10699 14.2227 6.83011 14.3343 6.50033 14.3335ZM11.167 14.3335C10.8364 14.3335 10.5592 14.2215 10.3352 13.9975C10.1112 13.7735 9.99955 13.4966 10.0003 13.1668C10.0003 12.8363 10.1123 12.559 10.3363 12.335C10.5603 12.111 10.8372 11.9994 11.167 12.0002C11.4976 12.0002 11.7748 12.1122 11.9988 12.3362C12.2228 12.5602 12.3344 12.8371 12.3337 13.1668C12.3337 13.4974 12.2217 13.7747 11.9977 13.9987C11.7737 14.2227 11.4968 14.3343 11.167 14.3335ZM15.8337 14.3335C15.5031 14.3335 15.2258 14.2215 15.0018 13.9975C14.7778 13.7735 14.6662 13.4966 14.667 13.1668C14.667 12.8363 14.779 12.559 15.003 12.335C15.227 12.111 15.5039 11.9994 15.8337 12.0002C16.1642 12.0002 16.4415 12.1122 16.6655 12.3362C16.8895 12.5602 17.0011 12.8371 17.0003 13.1668C17.0003 13.4974 16.8883 13.7747 16.6643 13.9987C16.4403 14.2227 16.1634 14.3343 15.8337 14.3335ZM3.00033 23.6668C2.35866 23.6668 1.80916 23.4382 1.35183 22.9808C0.894494 22.5235 0.666216 21.9744 0.666994 21.3335V5.00016C0.666994 4.3585 0.895661 3.809 1.35299 3.35166C1.81033 2.89433 2.35944 2.66605 3.00033 2.66683H4.16699V0.333496H6.50033V2.66683H15.8337V0.333496H18.167V2.66683H19.3337C19.9753 2.66683 20.5248 2.8955 20.9822 3.35283C21.4395 3.81016 21.6678 4.35927 21.667 5.00016V21.3335C21.667 21.9752 21.4383 22.5247 20.981 22.982C20.5237 23.4393 19.9746 23.6676 19.3337 23.6668H3.00033ZM3.00033 21.3335H19.3337V9.66683H3.00033V21.3335ZM3.00033 7.3335H19.3337V5.00016H3.00033V7.3335Z" fill="#252525"/>
</svg>
