<svg width="14" height="10" viewBox="0 0 14 10" fill="none" xmlns="http://www.w3.org/2000/svg">
<path fill-rule="evenodd" clip-rule="evenodd" d="M12.8834 0.36752C13.1175 0.601896 13.249 0.919602 13.249 1.25085C13.249 1.5821 13.1175 1.89981 12.8834 2.13419L5.3834 9.63419C5.14903 9.86827 4.83132 9.99975 4.50007 9.99975C4.16882 9.99975 3.85111 9.86827 3.61674 9.63419L1.11674 7.13419C0.895936 6.89723 0.775731 6.58382 0.781445 6.25998C0.787158 5.93615 0.918345 5.62717 1.14737 5.39815C1.37639 5.16913 1.68536 5.03794 2.0092 5.03223C2.33303 5.02651 2.64644 5.14672 2.8834 5.36752L4.50007 6.98419L11.1167 0.36752C11.3511 0.133436 11.6688 0.00195312 12.0001 0.00195312C12.3313 0.00195312 12.649 0.133436 12.8834 0.36752Z" fill="#67D1A4"/>
</svg>
