<svg width="25" height="26" viewBox="0 0 25 26" fill="none" xmlns="http://www.w3.org/2000/svg">
<path d="M12.5003 0.916748C19.1739 0.916748 24.5837 6.32646 24.5837 13.0001C24.5837 19.6737 19.1739 25.0834 12.5003 25.0834C5.8267 25.0834 0.416992 19.6737 0.416992 13.0001C0.416992 6.32646 5.8267 0.916748 12.5003 0.916748ZM12.5003 5.75008C12.1799 5.75008 11.8725 5.87739 11.6459 6.10399C11.4193 6.3306 11.292 6.63794 11.292 6.95841V13.0001C11.2921 13.3205 11.4194 13.6278 11.646 13.8544L15.271 17.4794C15.4989 17.6995 15.8042 17.8213 16.121 17.8185C16.4378 17.8158 16.7409 17.6887 16.9649 17.4647C17.1889 17.2406 17.316 16.9376 17.3188 16.6207C17.3215 16.3039 17.1997 15.9987 16.9796 15.7708L13.7087 12.4998V6.95841C13.7087 6.63794 13.5814 6.3306 13.3547 6.10399C13.1281 5.87739 12.8208 5.75008 12.5003 5.75008Z" fill="white"/>
</svg>
