<svg width="24" height="24" viewBox="0 0 24 24" fill="none" xmlns="http://www.w3.org/2000/svg">
<path d="M24.0049 12C24.0049 17.9896 19.6166 22.9543 13.8797 23.8544V15.4696H16.676L17.2075 12H13.8797V9.74884C13.8797 8.80045 14.3438 7.874 15.8356 7.874H17.3493V4.92083C17.3493 4.92083 15.9756 4.68626 14.6627 4.68626C11.9222 4.68626 10.13 6.34679 10.13 9.35565V12H7.08237V15.4696H10.13V23.8544C4.39316 22.9543 0.00488281 17.9896 0.00488281 12C0.00488281 5.37258 5.37747 0 12.0049 0C18.6323 0 24.0049 5.37258 24.0049 12ZM10.13 23.8549C10.7409 23.9511 11.367 24 12.0049 24C11.3671 24 10.7409 23.9502 10.13 23.8544V23.8549ZM13.8797 23.8549V23.8544C13.7855 23.8692 13.6912 23.8828 13.5967 23.8954C13.6912 23.8829 13.7855 23.8694 13.8797 23.8549ZM13.5967 23.8954C13.0759 23.9644 12.5445 24 12.0049 24C12.5446 24 13.0759 23.9638 13.5967 23.8954Z" fill="#8D7EA4"/>
</svg>
