<svg width="32" height="39" viewBox="0 0 32 39" fill="none" xmlns="http://www.w3.org/2000/svg">
<path d="M16 38.65C15.5333 38.65 15.0667 38.5667 14.6 38.4C14.1333 38.2333 13.7167 37.9833 13.35 37.65C11.1833 35.65 9.26667 33.7 7.6 31.8C5.93333 29.9 4.542 28.0587 3.426 26.276C2.30867 24.492 1.45867 22.7753 0.876 21.126C0.293334 19.4767 0.00133333 17.9013 0 16.4C0 11.4 1.60867 7.41667 4.826 4.45C8.04333 1.48333 11.768 0 16 0C20.2333 0 23.9587 1.48333 27.176 4.45C30.3933 7.41667 32.0013 11.4 32 16.4C32 17.9 31.708 19.4753 31.124 21.126C30.54 22.7767 29.69 24.4933 28.574 26.276C27.458 28.0587 26.0667 29.9 24.4 31.8C22.7333 33.7 20.8167 35.65 18.65 37.65C18.2833 37.9833 17.8667 38.2333 17.4 38.4C16.9333 38.5667 16.4667 38.65 16 38.65Z" fill="black"/>
<path d="M21.5169 15.0343C21.5169 18.2338 18.9232 20.8274 15.7238 20.8274C12.5243 20.8274 9.93066 18.2338 9.93066 15.0343C9.93066 11.8349 12.5243 9.24121 15.7238 9.24121C18.9232 9.24121 21.5169 11.8349 21.5169 15.0343Z" fill="#E7E0F2"/>
</svg>
