<svg width="29" height="30" viewBox="0 0 29 30" fill="none" xmlns="http://www.w3.org/2000/svg">
<path fill-rule="evenodd" clip-rule="evenodd" d="M13.8208 26.1165C14.1028 26.2172 14.3847 26.2675 14.6667 26.2675C14.9486 26.2675 15.2306 26.2172 15.5125 26.1165C15.7944 26.0158 16.0462 25.8648 16.2677 25.6634C17.5767 24.455 18.7347 23.2769 19.7417 22.129C20.7486 20.9811 21.5892 19.8686 22.2635 18.7916C22.9377 17.7146 23.4513 16.6774 23.8041 15.6801C24.1569 14.6828 24.3333 13.7311 24.3333 12.8248C24.3341 9.804 23.3626 7.39741 21.4188 5.60505C19.475 3.81268 17.2243 2.9165 14.6667 2.9165C12.1098 2.9165 9.85951 3.81268 7.91571 5.60505C5.9719 7.39741 5 9.804 5 12.8248C5.00081 13.7319 5.17722 14.6837 5.52925 15.6801C5.88128 16.6766 6.39482 17.7138 7.06987 18.7916C7.74412 19.8686 8.58472 20.9811 9.59167 22.129C10.5986 23.2769 11.7566 24.455 13.0656 25.6634C13.2872 25.8648 13.5389 26.0158 13.8208 26.1165ZM14.5 15.4999C16.433 15.4999 18 13.9329 18 11.9999C18 10.0669 16.433 8.49988 14.5 8.49988C12.567 8.49988 11 10.0669 11 11.9999C11 13.9329 12.567 15.4999 14.5 15.4999Z" fill="white"/>
</svg>
