<svg width="42" height="40" viewBox="0 0 42 40" fill="none" xmlns="http://www.w3.org/2000/svg">
<g opacity="0.2">
<path d="M20.75 22.833C20.75 24.4906 21.4085 26.0803 22.5806 27.2524C23.7527 28.4245 25.3424 29.083 27 29.083C28.6576 29.083 30.2473 28.4245 31.4194 27.2524C32.5915 26.0803 33.25 24.4906 33.25 22.833C33.25 21.1754 32.5915 19.5857 31.4194 18.4136C30.2473 17.2415 28.6576 16.583 27 16.583C25.3424 16.583 23.7527 17.2415 22.5806 18.4136C21.4085 19.5857 20.75 21.1754 20.75 22.833Z" stroke="#252525" stroke-width="3.5" stroke-linecap="round" stroke-linejoin="round"/>
<path d="M22.833 28.042V37.417L26.9997 34.292L31.1663 37.417V28.042" stroke="#252525" stroke-width="3.5" stroke-linecap="round" stroke-linejoin="round"/>
<path d="M16.5833 31.1667H6.16667C5.0616 31.1667 4.00179 30.7277 3.22039 29.9463C2.43899 29.1649 2 28.1051 2 27V6.16667C2 3.875 3.875 2 6.16667 2H35.3333C36.4384 2 37.4982 2.43899 38.2796 3.22039C39.061 4.00179 39.5 5.0616 39.5 6.16667V27C39.4992 27.7307 39.3064 28.4483 38.9407 29.0809C38.575 29.7135 38.0495 30.2388 37.4167 30.6042M8.25 10.3333H33.25M8.25 16.5833H14.5M8.25 22.8333H12.4167" stroke="#252525" stroke-width="3.5" stroke-linecap="round" stroke-linejoin="round"/>
</g>
</svg>
