<svg width="24" height="24" viewBox="0 0 24 24" fill="none" xmlns="http://www.w3.org/2000/svg">
<path d="M11.9977 2.16256C15.2027 2.16256 15.5791 2.17704 16.8463 2.23419C18.0183 2.28677 18.6515 2.48184 19.0752 2.64872C19.6375 2.86741 20.0368 3.12497 20.4567 3.54407C20.8766 3.96317 21.1379 4.36322 21.352 4.92558C21.5136 5.34925 21.714 5.98247 21.7666 7.15443C21.8237 8.42088 21.8382 8.79731 21.8382 12.003C21.8382 15.2088 21.8237 15.5845 21.7666 16.8517C21.714 18.0236 21.5189 18.6568 21.352 19.0805C21.1326 19.6429 20.8758 20.0422 20.4567 20.462C20.0376 20.8819 19.6375 21.1433 19.0752 21.3574C18.6515 21.5189 18.0183 21.7193 16.8463 21.7719C15.5791 21.8291 15.2035 21.8435 11.9977 21.8435C8.79197 21.8435 8.41631 21.8291 7.1491 21.7719C5.9779 21.7193 5.34392 21.5243 4.92024 21.3574C4.35865 21.1379 3.95784 20.8811 3.53874 20.462C3.11963 20.0429 2.85751 19.6429 2.64338 19.0805C2.48184 18.6568 2.28143 18.0236 2.22885 16.8517C2.1717 15.5845 2.15723 15.2088 2.15723 12.003C2.15723 8.79731 2.1717 8.42164 2.22885 7.15443C2.28143 5.98324 2.47651 5.34925 2.64338 4.92558C2.86208 4.36398 3.11963 3.96317 3.53874 3.54407C3.95784 3.12497 4.35789 2.86284 4.92024 2.64872C5.34392 2.48717 5.9779 2.28677 7.1491 2.23419C8.41555 2.17247 8.79197 2.16256 11.9977 2.16256ZM11.9977 0C8.74016 0 8.3302 0.014478 7.04928 0.0716281C5.77292 0.128778 4.90119 0.333757 4.13919 0.628651C3.349 0.933452 2.68148 1.34798 2.01473 2.01473C1.34798 2.68148 0.938024 3.35281 0.628651 4.13919C0.333757 4.90119 0.128778 5.77292 0.0716282 7.05385C0.014478 8.3302 0 8.74016 0 11.9977C0 15.2553 0.014478 15.6652 0.0716282 16.9462C0.128778 18.2225 0.333757 19.0942 0.628651 19.8608C0.933452 20.6518 1.34798 21.3185 2.01473 21.9853C2.68148 22.652 3.35281 23.062 4.13919 23.3713C4.90119 23.6662 5.77292 23.8712 7.05385 23.9284C8.33477 23.9855 8.74016 24 12.0023 24C15.2644 24 15.6698 23.9855 16.9507 23.9284C18.2271 23.8712 19.0988 23.6662 19.8654 23.3713C20.6563 23.0665 21.3231 22.652 21.9898 21.9853C22.6566 21.3185 23.0665 20.6472 23.3759 19.8608C23.6708 19.0988 23.8758 18.2271 23.9329 16.9462C23.9901 15.6652 24.0046 15.2606 24.0046 11.9977C24.0046 8.73482 23.9901 8.3302 23.9329 7.04928C23.8758 5.77292 23.6708 4.90119 23.3759 4.13462C23.0711 3.34366 22.6566 2.67691 21.9898 2.01016C21.3231 1.34341 20.6518 0.933452 19.8654 0.624079C19.1034 0.329185 18.2316 0.124206 16.9507 0.0670561C15.6645 0.014478 15.2553 0 11.9977 0Z" fill="#8D7EA4"/>
<path d="M11.9979 5.83413C10.3753 5.85217 8.82529 6.5094 7.68428 7.66317C6.54327 8.81693 5.90332 10.3741 5.90332 11.9968C5.90332 13.6195 6.54327 15.1767 7.68428 16.3305C8.82529 17.4842 10.3753 18.1415 11.9979 18.1595C15.3987 18.1595 18.1602 15.3972 18.1602 11.9964C18.1602 8.59562 15.3979 5.83337 11.9971 5.83337L11.9979 5.83413ZM11.9979 15.9977C10.9369 15.9977 9.91931 15.5762 9.16907 14.826C8.41883 14.0757 7.99735 13.0582 7.99735 11.9972C7.99735 10.9362 8.41883 9.91865 9.16907 9.16841C9.91931 8.41817 10.9369 7.99669 11.9979 7.99669C13.0589 7.99669 14.0764 8.41817 14.8266 9.16841C15.5769 9.91865 15.9984 10.9362 15.9984 11.9972C15.9984 13.0582 15.5769 14.0757 14.8266 14.826C14.0764 15.5762 13.0589 15.9977 11.9979 15.9977ZM19.8419 5.59181C19.842 5.78064 19.8049 5.96764 19.7327 6.14213C19.6606 6.31662 19.5547 6.47519 19.4213 6.60878C19.2878 6.74237 19.1294 6.84837 18.955 6.92073C18.7806 6.99308 18.5936 7.03037 18.4048 7.03047C18.2159 7.03057 18.0289 6.99348 17.8545 6.92131C17.68 6.84914 17.5214 6.74331 17.3878 6.60986C17.2542 6.47641 17.1482 6.31795 17.0759 6.14354C17.0035 5.96912 16.9662 5.78216 16.9661 5.59334C16.9658 5.21198 17.117 4.84613 17.3865 4.57626C17.6559 4.30638 18.0215 4.1546 18.4029 4.1543C18.7842 4.15399 19.1501 4.3052 19.4199 4.57464C19.6898 4.84408 19.8416 5.2097 19.8419 5.59105V5.59181Z" fill="#8D7EA4"/>
</svg>
