<svg width="20" height="20" viewBox="0 0 20 20" fill="none" xmlns="http://www.w3.org/2000/svg">
<path d="M5.43628 10.4168L8.54878 13.5293C8.62989 13.6104 8.67239 13.7059 8.67628 13.8159C8.67961 13.9259 8.63711 14.0268 8.54878 14.1184C8.45655 14.2106 8.35739 14.2576 8.25128 14.2593C8.14516 14.2604 8.046 14.2151 7.95378 14.1234L4.30211 10.4709C4.16711 10.3365 4.09961 10.1795 4.09961 10.0001C4.09961 9.82065 4.16711 9.6637 4.30211 9.52926L7.95378 5.87676C8.03489 5.79565 8.13128 5.75315 8.24294 5.74926C8.35461 5.74537 8.45655 5.78954 8.54878 5.88176C8.63767 5.97343 8.68266 6.07176 8.68378 6.17676C8.68544 6.2812 8.64044 6.37926 8.54878 6.47093L5.43628 9.58343H15.7529C15.8718 9.58343 15.9713 9.62315 16.0513 9.70259C16.1307 9.78259 16.1704 9.88176 16.1704 10.0001C16.1704 10.1184 16.1307 10.2176 16.0513 10.2976C15.9713 10.377 15.8721 10.4168 15.7538 10.4168H5.43711H5.43628Z" fill="white"/>
</svg>
