<svg width="30" height="31" viewBox="0 0 30 31" fill="none" xmlns="http://www.w3.org/2000/svg">
<path d="M27.4662 25.1095C25.8595 22.2896 23.3507 20.0924 20.3435 18.8716C21.839 17.75 22.9436 16.1864 23.5009 14.4021C24.0583 12.6179 24.0401 10.7035 23.449 8.93018C22.8579 7.15684 21.7238 5.61444 20.2074 4.52146C18.6909 3.42848 16.8691 2.84033 14.9998 2.84033C13.1305 2.84033 11.3086 3.42848 9.79222 4.52146C8.27579 5.61444 7.1417 7.15684 6.55058 8.93018C5.95947 10.7035 5.9413 12.6179 6.49866 14.4021C7.05601 16.1864 8.16063 17.75 9.65604 18.8716C6.64892 20.0924 4.14008 22.2896 2.53339 25.1095C2.43383 25.2696 2.36748 25.448 2.33827 25.6343C2.30906 25.8205 2.3176 26.0107 2.36337 26.1936C2.40914 26.3764 2.49122 26.5483 2.60472 26.6988C2.71821 26.8493 2.86081 26.9755 3.02404 27.0698C3.18727 27.1641 3.3678 27.2246 3.55489 27.2477C3.74197 27.2709 3.93181 27.2562 4.1131 27.2045C4.29439 27.1528 4.46343 27.0652 4.61019 26.9469C4.75695 26.8285 4.87841 26.6819 4.96737 26.5157C7.09081 22.8454 10.8408 20.6563 14.9998 20.6563C19.1588 20.6563 22.9088 22.8466 25.0322 26.5157C25.225 26.8257 25.5308 27.0486 25.8849 27.1372C26.239 27.2259 26.6138 27.1733 26.9299 26.9907C27.246 26.8081 27.4786 26.5097 27.5787 26.1586C27.6788 25.8076 27.6385 25.4313 27.4662 25.1095ZM8.90604 11.7501C8.90604 10.5449 9.26343 9.3667 9.93302 8.36459C10.6026 7.36248 11.5543 6.58143 12.6678 6.12021C13.7813 5.65899 15.0066 5.53831 16.1886 5.77344C17.3707 6.00857 18.4565 6.58894 19.3087 7.44116C20.1609 8.29339 20.7413 9.37919 20.9765 10.5613C21.2116 11.7433 21.0909 12.9686 20.6297 14.0821C20.1685 15.1956 19.3874 16.1473 18.3853 16.8169C17.3832 17.4865 16.205 17.8438 14.9998 17.8438C13.3842 17.842 11.8353 17.1994 10.6929 16.057C9.55052 14.9146 8.9079 13.3657 8.90604 11.7501Z" fill="white"/>
</svg>
