<svg width="111" height="63" viewBox="0 0 111 63" fill="none" xmlns="http://www.w3.org/2000/svg">
<g clip-path="url(#clip0_92_1127)">
<path d="M59.9209 34.295C59.7244 34.2731 59.5934 34.2403 59.4624 34.2403C58.6 34.2403 57.7485 34.2403 56.8861 34.2403C56.5586 34.2403 56.2311 34.2731 55.9036 34.2841C55.456 34.2841 55.3141 34.0762 55.4015 33.6277C55.467 33.2448 55.5761 32.8619 55.3469 32.4791C55.3141 32.4244 55.456 32.2931 55.456 32.1946C55.4342 31.232 55.4015 30.2693 55.3578 29.3066C55.3578 29.1973 55.2159 29.0988 55.1504 29.0222C55.1831 28.7269 55.2159 28.4096 55.2595 28.0924C55.5761 25.4232 55.4342 22.743 55.467 20.0738C55.467 19.9972 55.467 19.9097 55.467 19.8331C55.456 19.1549 55.3796 19.1111 54.6373 19.1439C54.2334 19.1658 53.8295 19.1002 53.4256 19.0783C53.0981 19.0564 52.7815 19.0127 52.454 19.0236C51.0785 19.0455 49.7248 19.2643 48.3821 19.5378C47.5197 19.7128 46.6573 20.041 45.8604 20.4567C44.5722 21.124 43.5351 22.1085 42.7928 23.3666C42.3561 24.1104 42.0286 24.8981 41.9631 25.7623C41.9085 26.4624 41.8103 27.1516 41.8321 27.8517C41.8867 29.3504 42.2033 30.7835 43.2076 31.9759C43.7535 32.6213 44.4194 33.0807 45.1944 33.4089C46.0459 33.7699 46.9193 34.0434 47.8363 33.9996C48.5022 33.9668 49.1681 33.7262 49.8231 33.5621C50.096 33.4964 50.3798 33.4417 50.6309 33.3214C51.5152 32.9276 52.2029 32.2603 52.8361 31.5602C53.3273 31.0241 53.7421 30.4115 54.1788 29.8317C54.2661 29.7114 54.3207 29.5692 54.4408 29.3613C54.4408 29.9958 54.2116 30.4334 53.9059 30.8491C53.3382 31.6149 52.7269 32.315 51.9846 32.9166C50.7728 33.9012 49.3209 34.2294 47.869 34.5357C46.8647 34.7435 45.8713 34.6013 44.8888 34.3169C44.2229 34.12 43.5351 33.9778 42.891 33.7152C41.7448 33.2667 40.6968 32.665 39.8781 31.7024C38.9392 30.5866 38.6008 29.2848 38.5571 27.8626C38.4916 25.9264 39.1576 24.2308 40.413 22.7977C40.9588 22.1742 41.6902 21.7038 42.367 21.2006C42.8146 20.8724 43.3168 20.6098 43.7753 20.2926C44.0154 20.1285 44.201 19.8988 44.4194 19.7019C43.9936 19.0236 43.9499 18.3016 44.0264 17.5687C44.1028 16.9014 44.2229 16.2231 44.4194 15.5777C44.7796 14.44 45.3582 13.4336 46.3844 12.7444C47.0721 12.2849 47.738 11.7708 48.5786 11.6395C49.5938 11.4754 50.6091 11.2238 51.6462 11.4317C52.4976 11.5958 53.371 11.7161 54.2225 11.9239C55.0521 12.1318 55.7726 12.5803 56.4167 13.1273C57.432 13.9915 58.2398 15.0307 58.6328 16.3435C58.9275 17.3171 59.0913 18.3126 59.0913 19.3409C59.0913 23.3556 59.1131 27.3704 59.1677 31.3851C59.1677 32.0196 59.3096 32.665 59.4406 33.2995C59.4952 33.5621 59.7135 33.7809 59.8445 34.0215C59.8882 34.0981 59.8991 34.1966 59.9319 34.2841L59.9209 34.295ZM55.325 18.6517C55.336 18.5532 55.3905 18.411 55.3796 18.2579C55.3796 17.7765 55.3578 17.2842 55.3141 16.8029C55.2377 15.7746 54.9648 14.8119 54.4299 13.9259C53.6766 12.6788 52.5959 11.9349 51.1331 11.8583C49.5611 11.7817 48.0655 12.0662 46.7773 13.0507C46.1114 13.5539 45.5001 14.1228 45.1289 14.9104C44.6268 15.9606 44.4084 17.0764 44.4521 18.236C44.463 18.7064 44.4521 19.1768 44.4521 19.7237C44.9543 19.6034 45.4128 19.5159 45.8604 19.3955C46.952 19.1221 48.0328 18.8048 49.179 18.772C49.5611 18.772 49.9432 18.7173 50.3252 18.6736C50.9147 18.6079 51.5042 18.4548 52.0937 18.4657C53.1636 18.4766 54.2225 18.586 55.325 18.6626V18.6517Z" fill="white"/>
<path d="M63.524 0.831456C64.2226 0.689244 64.834 0.557971 65.4453 0.448577C66.1439 0.317304 66.8426 0.218849 67.5304 0.0766373C68.2836 -0.0765143 68.4037 0.0110009 68.3491 0.776759C68.3163 1.34561 68.2836 1.90352 68.2836 2.47237C68.3163 6.76061 68.36 11.0489 68.3928 15.3371C68.3928 15.9059 68.3709 16.4748 68.36 17.0436C68.3382 19.1003 68.2945 21.1569 68.2836 23.2135C68.2836 25.4889 68.2836 27.7533 68.3054 30.0287C68.3054 30.696 68.3163 31.3633 68.4255 32.0416C68.5019 32.501 68.5783 32.9386 68.753 33.3652C68.8403 33.5731 68.9604 33.7481 69.0587 33.956C69.0914 34.0435 69.0914 34.1529 69.1023 34.2732C68.3709 34.2732 67.6723 34.2732 66.9736 34.2732C66.4933 34.2732 66.0129 34.317 65.5217 34.3279C65.3907 34.3279 65.2597 34.2623 65.1287 34.2732C64.7139 34.3279 64.299 34.3935 63.8842 34.4592C63.8078 34.4701 63.7314 34.4701 63.5895 34.481C63.655 34.2513 63.655 34.0325 63.7641 33.8903C64.43 33.0152 64.6047 31.9869 64.6156 30.9367C64.6484 29.077 64.6156 27.2063 64.6156 25.3357C64.6156 24.8653 64.5392 24.384 64.5392 23.9136C64.5392 23.3447 64.6156 22.7868 64.6156 22.218C64.6265 16.3982 64.6265 10.5675 64.6265 4.74776C64.6265 3.982 64.5938 3.20531 64.572 2.43955C64.561 1.88164 64.2445 1.46594 63.8515 1.10494C63.7641 1.02837 63.6768 0.973668 63.4912 0.831456H63.524Z" fill="white"/>
<path d="M101.459 34.7106C100.4 34.5684 99.3412 34.4481 98.2932 34.2621C96.612 33.9667 95.0619 33.3323 93.5881 32.479C92.6493 31.932 91.765 31.3304 91.0445 30.5099C89.811 29.0878 88.894 27.4906 88.5556 25.609C88.4027 24.7339 88.1953 23.8369 88.2281 22.9617C88.3045 20.741 88.7957 18.6188 90.2476 16.8247C91.4048 15.4026 92.7148 14.1555 94.3304 13.2803C95.1601 12.8209 96.0116 12.3833 96.8849 12.0223C97.4417 11.7926 98.053 11.6941 98.6534 11.6176C99.625 11.4972 100.607 11.4206 101.579 11.3769C102.605 11.3331 103.62 11.541 104.592 11.8692C105.542 12.1864 106.502 12.5255 107.354 13.0287C108.653 13.7945 109.69 14.8884 110.312 16.2887C110.574 16.8685 110.694 17.5139 110.836 18.1374C110.935 18.5422 110.771 18.6844 110.291 18.6953C109.81 18.6953 109.341 18.6735 108.86 18.6625C108.62 18.6625 108.38 18.6625 108.151 18.6953C108.031 18.7172 107.933 18.8485 107.823 18.9251C107.911 19.0345 107.976 19.1657 108.074 19.2533C108.347 19.472 108.631 19.6799 108.904 19.8987C109.93 20.7301 110.553 21.8131 110.793 23.1039C110.913 23.7384 110.924 24.3948 110.946 25.0511C110.978 25.8497 110.946 26.6483 110.989 27.4359C111.022 28.1251 110.793 28.7487 110.563 29.3722C110.018 30.9147 108.926 31.9758 107.583 32.84C106.797 33.3432 105.978 33.7808 105.072 34.0214C103.893 34.3387 102.714 34.7216 101.459 34.6012C101.459 34.6341 101.459 34.6778 101.448 34.7106H101.459ZM110.946 25.7184C110.946 24.7995 110.946 23.8916 110.542 23.0383C110.378 22.6992 110.225 22.36 110.094 22.01C109.668 20.8395 108.708 20.194 107.758 19.5486C107.125 19.122 106.371 19.0673 105.673 18.9798C104.647 18.8485 103.599 18.8704 102.562 18.8485C102.005 18.8485 101.448 18.9032 100.902 18.9032C99.6577 18.9032 98.4023 18.8813 97.1578 18.8704C95.7605 18.8485 94.3632 18.8376 92.9768 18.7938C92.7039 18.7938 92.2126 19.0892 92.1908 19.297C92.1362 19.7455 92.0598 20.1831 92.0598 20.6316C92.0598 21.3536 92.1799 22.0866 92.0925 22.7976C91.9834 23.629 92.2017 24.3948 92.3 25.1824C92.3982 26.0357 92.7803 26.8233 93.1187 27.611C93.5444 28.6174 94.0794 29.5582 94.8108 30.3786C95.1492 30.7506 95.5203 31.0897 95.9133 31.4179C96.3063 31.746 96.6993 32.0961 97.1469 32.3368C97.6273 32.5993 98.1731 32.7415 98.6862 32.9384C99.2975 33.1791 99.9197 33.3979 100.586 33.4745C101.492 33.5729 102.409 33.6604 103.315 33.5182C104.723 33.2994 106.109 33.015 107.343 32.2274C108.118 31.746 108.817 31.1881 109.384 30.488C109.625 30.1927 109.81 29.8426 109.985 29.5035C110.28 28.9127 110.64 28.333 110.804 27.6985C110.967 27.064 110.924 26.3748 110.967 25.7184H110.946ZM107.616 18.3562C107.616 18.3562 107.649 18.2906 107.638 18.2359C107.452 17.3607 107.245 16.4965 106.819 15.687C105.902 13.9258 104.548 12.7006 102.616 12.1317C101.273 11.7379 99.9307 11.716 98.5661 11.902C97.8238 12.0004 97.1797 12.3505 96.5138 12.6459C95.5313 13.0834 94.7016 13.707 94.1339 14.5821C93.5554 15.4792 93.1187 16.4637 92.6493 17.4373C92.5183 17.7108 92.4965 18.028 92.4091 18.3672H107.605L107.616 18.3562Z" fill="white"/>
<path d="M5.26172 18.0062C5.37088 17.5905 5.53463 17.1529 5.60013 16.7153C5.7093 16.0152 6.1678 15.4682 6.35338 14.8009C6.63721 13.8054 7.25946 13.0397 8.25287 12.613C8.59128 12.4708 8.87511 12.2083 9.1917 12.0223C9.94494 11.5738 10.7964 11.4972 11.6479 11.4425C12.423 11.3988 13.1872 11.4535 13.9295 11.716C14.8137 12.0223 15.6325 12.4161 16.3312 13.0616C17.2918 13.9586 17.8813 15.0635 18.2743 16.2887C18.5472 17.1529 18.8529 18.0062 19.104 18.8704C19.3878 19.8659 19.3551 20.8942 19.235 21.9115C19.235 21.9553 19.235 21.999 19.235 22.0428C19.2131 23.6071 19.1804 25.1715 19.1695 26.7467C19.1586 28.508 19.1695 30.2802 19.1695 32.0414C19.1695 32.665 19.4315 33.2229 19.7262 33.748C19.8463 33.9667 19.9227 34.1527 19.748 34.3715C18.0341 34.2074 16.2984 34.1746 14.519 34.4262C14.5408 34.2949 14.5408 34.1418 14.6063 34.0105C14.7373 33.748 14.8028 33.4745 15.0212 33.2338C15.2177 33.015 15.3268 32.654 15.3487 32.3477C15.4142 30.8928 15.4687 29.4269 15.4687 27.972C15.4797 25.1386 15.4906 22.2944 15.4687 19.4611C15.4578 18.2578 15.4578 17.0435 15.0976 15.862C14.6718 14.4509 14.0059 13.2366 12.7178 12.4489C12.0409 12.0332 11.2877 11.9895 10.5344 12.0661C9.54103 12.1755 8.70045 12.6568 7.90354 13.2147C7.05204 13.8164 6.48438 14.6149 6.32063 15.6761C6.27696 15.9824 6.09138 16.2559 5.9713 16.5512C5.87305 16.7919 5.79663 17.0435 5.68747 17.2842C5.62197 17.4373 5.52372 17.5905 5.43638 17.7436C5.3818 17.8311 5.33813 17.9296 5.28355 18.0171L5.26172 18.0062Z" fill="white"/>
<path d="M30.0429 34.2733C30.1411 34.0983 30.2175 33.9123 30.3376 33.7701C30.6215 33.4091 30.7743 33.0262 30.7634 32.5558C30.7634 31.9104 30.7961 31.254 30.7634 30.6086C30.7306 29.8866 30.6215 29.1755 30.556 28.4645C30.5232 28.1253 30.5123 27.7972 30.4795 27.458C30.414 26.6266 30.3485 25.7953 30.2721 24.9748C30.2285 24.4169 30.1848 23.859 30.1411 23.3011C30.0756 22.5025 30.0101 21.7149 29.9337 20.9163C29.8682 20.2052 29.8464 19.4832 29.7154 18.7831C29.5189 17.6892 29.3115 16.5843 29.0058 15.5122C28.8093 14.834 28.4927 14.1667 28.0997 13.565C27.5321 12.6789 26.7024 12.121 25.5998 12.0554C24.792 12.0007 24.0278 12.1101 23.3619 12.5586C22.8161 12.9196 22.303 13.3353 21.7899 13.7291C21.7135 13.7947 21.6808 13.926 21.6262 14.0135C21.255 14.648 20.8838 15.2825 20.5236 15.917C20.3817 16.1686 20.2398 16.4311 20.1088 16.6937C19.945 17.0109 19.7813 17.3282 19.6175 17.6563C19.5957 17.361 19.5739 17.0875 19.7376 16.8031C20.0433 16.2889 20.2616 15.731 20.5673 15.2169C21.517 13.6744 22.565 12.1866 24.4208 11.6616C25.5452 11.3443 26.7024 11.3662 27.8596 11.6069C29.8464 12.0226 31.1018 13.2806 31.9969 15.0309C32.6519 16.3327 33.0886 17.7001 33.2851 19.1441C33.4161 20.1396 33.5253 21.146 33.6235 22.1415C33.7218 23.126 33.8091 24.1106 33.9073 25.0842C34.0165 26.1781 34.1366 27.2721 34.2458 28.3551C34.3549 29.4709 34.4423 30.5867 34.5951 31.7025C34.7043 32.4902 34.9117 33.2778 35.4903 33.8795C35.6431 34.0436 35.523 34.3389 35.2938 34.3389C34.9772 34.3389 34.6715 34.3061 34.3549 34.2842C34.2676 34.2842 34.1803 34.2623 34.082 34.2623C33.0777 34.2623 32.0843 34.2623 31.0799 34.2733C30.7524 34.2733 30.4359 34.328 30.1084 34.3608C30.0865 34.328 30.0538 34.2952 30.032 34.2733H30.0429Z" fill="white"/>
<path d="M4.37773 11.4645C4.38865 11.7927 4.4214 12.11 4.4214 12.4381C4.4214 14.1884 4.4214 15.9497 4.4214 17.7C4.4214 18.4111 4.53056 19.1112 4.54148 19.8222C4.56331 20.7193 4.56331 21.6163 4.54148 22.5133C4.54148 23.3119 4.54148 24.1214 4.46506 24.92C4.25765 26.8563 4.2249 28.8035 4.26857 30.7507C4.30131 31.9212 4.4869 33.0589 5.06548 34.1091C5.06548 34.131 5.06548 34.1529 5.07639 34.2513C4.63973 34.2294 4.20307 34.1747 3.77732 34.1857C2.80574 34.2076 1.82325 34.2513 0.851669 34.2841C0.818919 34.2841 0.78617 34.2841 0.75342 34.2841C0.502338 34.2294 0.24034 34.1857 -0.0107422 34.131C0.0984238 33.9231 0.24034 33.7153 0.327672 33.4965C0.480505 33.0808 0.68792 32.6651 0.72067 32.2385C0.829836 30.8492 0.917169 29.4489 0.928085 28.0487C0.971752 24.6903 0.971752 21.3428 0.993585 17.9844C0.993585 17.2952 0.993585 16.5951 0.939002 15.9059C0.840753 14.7901 0.884419 13.6524 0.425922 12.5804C0.20759 12.0662 0.447755 11.8365 1.01542 11.7818C1.86691 11.7052 2.70749 11.563 3.55899 11.4645C3.79915 11.4317 4.05023 11.4645 4.37773 11.4645Z" fill="white"/>
<path d="M26.0035 62.7922C25.4031 62.7922 24.8354 62.7922 24.2786 62.7922C24.0276 62.7922 23.7328 62.8141 23.5254 62.7047C23.3507 62.6063 23.1652 62.3547 23.1433 62.1578C23.0778 61.5451 23.0887 60.9216 23.056 60.2981C23.0342 59.6854 22.9796 59.0728 22.9905 58.4712C23.0123 57.4538 23.1106 56.4364 23.1106 55.43C23.1106 54.3689 23.0342 53.3187 22.9796 52.2576C21.6914 52.2357 20.4469 52.1482 19.1915 52.3779C18.1544 52.5748 17.1829 52.914 16.2549 53.3953C15.3598 53.8548 14.7375 54.5877 14.3227 55.5066C14.0498 56.0973 13.9079 56.7209 13.9079 57.3772C13.9079 57.968 13.8533 58.5696 13.9188 59.1494C14.0716 60.3856 14.5847 61.4139 15.7855 61.9827C16.5169 62.3218 17.2593 62.5735 18.0671 62.6063C18.2418 62.6063 18.4273 62.5078 18.6129 62.4531C18.7767 62.4094 18.9295 62.3547 19.0823 62.3C19.6937 62.0812 20.3923 62.0374 20.7417 61.3592C20.7635 61.3154 20.7853 61.2826 20.8181 61.2498C21.2547 60.8341 21.7023 60.4184 22.1827 60.0136C21.9752 60.3418 21.7897 60.7028 21.5386 61.0091C20.8181 61.8843 19.8465 62.3547 18.7985 62.7266C18.209 62.9345 17.5977 63.0767 16.9754 63.0001C16.4187 62.9345 15.8729 62.7922 15.327 62.6719C14.017 62.3656 12.9254 61.6983 12.1503 60.5606C11.801 60.0574 11.6263 59.4995 11.5499 58.8869C11.4626 58.1539 11.5499 57.4648 11.7246 56.7646C11.9538 55.8785 12.4341 55.1456 13.1 54.5658C13.6677 54.0735 14.3009 53.6688 14.9122 53.2312C14.9886 53.1765 15.0541 53.1109 15.1196 53.0562C15.2834 52.9358 15.5126 52.8374 15.5781 52.6842C15.6218 52.5639 15.4034 52.367 15.3816 52.181C15.3379 51.9294 15.3161 51.645 15.3598 51.4043C15.4799 50.8136 15.6764 50.2229 15.8074 49.6321C16.0475 48.582 16.7025 47.9037 17.6523 47.4661C17.7942 47.4005 17.9252 47.313 18.0671 47.2364C18.7221 46.8754 19.4208 46.8098 20.1631 46.8864C20.4906 46.9192 20.829 46.8754 21.1347 46.952C21.6914 47.1051 22.2482 47.3021 22.7722 47.5318C23.8529 48.0241 24.6171 48.8336 25.0865 49.9275C25.3703 50.5729 25.5559 51.2512 25.5559 51.9732C25.5886 55.0581 25.5996 58.1321 25.6432 61.217C25.6432 61.5889 25.7961 61.9718 25.8834 62.3437C25.9161 62.4859 25.9489 62.6282 25.9816 62.7922H26.0035ZM22.9796 51.0214C22.8922 50.1901 22.6412 49.2055 22.139 48.2975C22.008 48.0678 21.7897 47.8818 21.5713 47.7287C21.091 47.3786 20.5233 47.2802 19.9448 47.2474C19.6937 47.2364 19.4426 47.2145 19.2024 47.2036C18.733 47.1817 18.3728 47.4661 17.9907 47.674C17.7505 47.8053 17.4776 47.9147 17.2702 48.0787C16.7244 48.5054 16.2222 48.9867 16.0803 49.7087C15.9493 50.4307 15.8292 51.1637 15.7309 51.8966C15.6545 52.4326 16.0148 52.7718 16.5497 52.6733C16.7353 52.6405 16.9209 52.5858 17.0955 52.5201C18.7767 51.8528 20.5343 51.7216 22.3246 51.8528C22.9032 51.8966 23.0014 51.82 23.0014 51.0324L22.9796 51.0214Z" fill="white"/>
<path d="M46.8649 55.6269C46.8212 54.2376 47.105 52.9248 47.8801 51.7543C48.6879 50.5401 49.6049 49.4352 50.8276 48.5928C51.6245 48.0459 52.4214 47.5427 53.3711 47.3129C53.6986 47.2364 54.0589 47.2145 54.3536 47.0613C54.9431 46.755 55.5872 46.755 56.1876 46.8316C56.9518 46.9301 57.6941 47.1926 58.4364 47.4114C60.4342 48.0021 61.9407 49.2601 63.0542 50.9776C63.3489 51.4371 63.5127 51.9841 63.6982 52.4982C63.993 53.2968 63.9602 54.1501 63.8947 54.9705C63.7528 56.7099 63.1633 58.2961 61.897 59.576C61.7442 59.7292 61.6132 59.8932 61.4931 60.0683C60.9582 60.834 60.1067 61.2279 59.4299 61.8295C59.277 61.9717 59.0259 62.0264 58.8076 62.0921C57.9234 62.3546 57.0391 62.6609 56.133 62.8359C55.358 62.9782 54.5501 63.0438 53.7532 62.8141C53.1856 62.65 52.5852 62.5843 52.0175 62.4093C50.8931 62.0592 49.856 61.5123 48.9827 60.7137C48.0984 59.9151 47.4325 58.9306 47.1159 57.7601C46.9304 57.0709 46.8758 56.3489 46.7666 55.6488C46.7994 55.6488 46.8212 55.6488 46.8539 55.6378L46.8649 55.6269ZM61.6787 56.0316C61.6787 56.0316 61.6459 56.0316 61.6241 56.0207C61.5913 55.5503 61.6023 55.069 61.5149 54.5986C61.3839 53.9094 61.1656 53.2312 60.9909 52.5529C60.4888 50.6057 59.3316 49.1289 57.705 48.0349C56.93 47.5098 56.0785 47.1051 55.0851 47.1817C54.9213 47.1926 54.7466 47.1598 54.572 47.1488C54.5065 47.1488 54.4301 47.1379 54.3755 47.1488C53.8951 47.3348 53.4257 47.5427 52.9345 47.7068C52.0502 47.9912 51.297 48.4725 50.6857 49.1617C49.8778 50.0697 49.3102 51.1198 49.2556 52.356C49.2119 53.2968 49.2119 54.2595 49.3429 55.2002C49.5067 56.3926 49.8232 57.5632 50.4018 58.6352C50.6966 59.1931 51.0896 59.6963 51.4171 60.2433C51.8428 60.9434 52.3996 61.4795 53.131 61.8295C53.6222 62.0592 54.1135 62.2999 54.6266 62.4312C55.1724 62.5734 55.7291 62.7375 56.3077 62.464C56.5915 62.3327 56.919 62.3109 57.2356 62.2562C57.6395 62.1796 58.0434 62.1358 58.4364 62.0264C59.3862 61.7639 60.0303 61.0856 60.5652 60.3089C60.849 59.9042 61.1328 59.4447 61.242 58.9743C61.4494 58.0117 61.5368 57.0162 61.6787 56.0316Z" fill="white"/>
<path d="M70.0522 62.9454C69.8011 62.9126 69.561 62.8689 69.3208 62.8689C68.7313 62.8579 68.1418 62.8689 67.5414 62.8689C67.3231 62.8689 67.1047 62.8907 66.8973 62.8579C66.8209 62.847 66.7227 62.6829 66.7227 62.5954C66.7227 62.2453 66.7554 61.8953 66.7991 61.5561C66.8646 60.9764 66.9847 60.4075 66.9847 59.8277C66.9956 53.7563 66.9956 47.685 66.9847 41.6136C66.9847 40.9573 66.8973 40.2899 66.8427 39.6336C66.8209 39.3273 66.9519 39.2179 67.2576 39.2179C68.0436 39.2069 68.8186 39.1632 69.6374 39.1304V39.4914C69.6374 46.4488 69.6374 53.4063 69.6483 60.3747C69.6483 60.8888 69.8339 61.392 69.9103 61.9062C69.9649 62.2344 69.9867 62.5735 70.0304 62.9673L70.0522 62.9454Z" fill="white"/>
<path d="M32.2583 39.3052C32.2583 41.2306 32.2583 43.134 32.2583 45.0484C32.2583 47.0066 32.2583 48.9647 32.2583 50.9229C32.2583 51.2511 32.3238 51.5792 32.3238 51.8965C32.3019 54.872 32.2801 57.8585 32.2692 60.834C32.2692 61.1403 32.3456 61.4466 32.4111 61.7529C32.4875 62.1248 32.5967 62.4968 32.6949 62.8468H29.2344C29.2999 62.4968 29.3654 62.1467 29.42 61.7857C29.4636 61.5232 29.5291 61.2606 29.5291 60.9981C29.5619 58.7117 29.5728 56.4254 29.6055 54.15C29.6055 53.5921 29.6601 53.0342 29.6492 52.4763C29.6492 51.3386 29.6055 50.2118 29.6055 49.0741C29.6055 46.6346 29.6165 44.2061 29.6055 41.7666C29.6055 41.1868 29.4964 40.607 29.3981 40.0382C29.3326 39.6225 29.3981 39.4693 29.813 39.4146C30.4679 39.3271 31.1229 39.2615 31.7889 39.2068C31.9199 39.2068 32.0509 39.2505 32.2692 39.3052H32.2583Z" fill="white"/>
<path d="M68.665 23.5196C69.1235 23.0821 69.5274 22.6554 69.9859 22.2726C70.4772 21.8459 71.0339 21.4849 71.5252 21.0473C72.3112 20.3582 73.0753 19.6252 73.8395 18.9142C73.9596 18.8048 74.0469 18.6516 74.167 18.5422C74.2543 18.4656 74.3744 18.3781 74.4727 18.3672C74.5382 18.3672 74.6692 18.5094 74.6801 18.586C74.691 19.1876 75.0949 19.5924 75.3897 20.0409C76.0556 21.0692 76.7433 22.0866 77.3874 23.1258C78.1406 24.3292 78.8502 25.5653 79.6253 26.7468C80.5751 28.2017 81.5685 29.6348 82.5728 31.0569C83.0531 31.7351 83.5989 32.3696 84.1666 32.9822C84.505 33.3323 84.9417 33.5839 85.3238 33.9011C85.4439 33.9996 85.5203 34.1418 85.6185 34.2621C85.6076 34.295 85.5858 34.3168 85.5749 34.3496C85.2364 34.3278 84.9089 34.295 84.5705 34.284C84.2212 34.2731 83.8719 34.284 83.5116 34.284C82.5619 34.284 81.6012 34.2512 80.6515 34.284C80.1384 34.284 79.6362 34.3934 79.1231 34.4153C78.9812 34.4153 78.8284 34.3606 78.6974 34.284C78.5009 34.1637 78.6756 34.0215 78.7301 33.923C79.2541 32.9822 79.0031 32.0524 78.621 31.1663C78.3044 30.4333 77.9005 29.7442 77.4857 29.0659C76.3503 27.2172 75.1822 25.3903 74.036 23.5415C73.5884 22.8305 73.1845 22.0975 72.7478 21.3755C72.6059 21.1349 72.4203 20.9161 72.1911 20.7192C71.94 21.3208 71.4597 21.4521 71.0558 21.7037C70.5973 21.9881 70.2152 22.4038 69.8004 22.7539C69.5056 23.0055 69.1999 23.2462 68.8834 23.4868C68.8288 23.5306 68.7305 23.5196 68.665 23.5306V23.5196Z" fill="white"/>
<path d="M93.3693 51.0324C92.9545 50.5729 92.5288 50.1135 92.1249 49.6431C91.2297 48.6148 90.1489 47.8709 88.8499 47.4552C88.8062 47.4443 88.7625 47.4224 88.7298 47.4005C88.4241 47.1599 88.053 47.1927 87.6927 47.1598C87.529 47.138 87.3652 47.0833 87.2015 47.0833C86.5792 47.0833 86.0006 47.2583 85.4548 47.5755C85.2146 47.7178 84.8981 47.7287 84.6688 47.8818C83.7955 48.4288 83.1187 49.1727 82.6274 50.0807C82.0161 51.2293 81.7432 52.4545 81.634 53.7454C81.5357 54.9378 81.634 56.1083 82.0161 57.2241C82.3763 58.2852 82.8567 59.3135 83.5881 60.1996C84.1557 60.8888 84.8216 61.4139 85.6513 61.7749C86.8412 62.3 88.053 62.5188 89.3302 62.1906C89.6031 62.1249 89.876 62.0702 90.1599 62.0593C91.0987 62.0374 91.7864 61.4467 92.5506 61.0201C92.7034 60.9326 92.8235 60.7794 92.9436 60.6481C93.5331 59.9918 94.1335 59.3354 94.7012 58.6681C94.854 58.4931 94.9304 58.2633 95.0614 58.0664C94.8431 58.5478 94.6903 59.0619 94.4064 59.4995C94.0898 59.9808 93.675 60.3965 93.2711 60.8341C93.1073 61.0201 92.8781 61.1404 92.6925 61.3045C91.6118 62.2781 90.269 62.5735 88.9154 62.836C88.5333 62.9126 88.1403 62.9563 87.7473 62.9782C86.7648 63.0439 85.826 62.7813 84.8871 62.5297C83.599 62.1906 82.4309 61.5889 81.4266 60.7247C80.6515 60.0574 80.1057 59.2041 79.6908 58.2743C79.1668 57.1038 78.8612 55.8785 79.014 54.5986C79.1013 53.8329 79.2978 53.0671 79.5271 52.3232C79.8655 51.1746 80.6188 50.2776 81.4812 49.4899C82.0707 48.943 82.7475 48.4726 83.3916 47.9912C83.5662 47.86 83.7846 47.7834 84.0029 47.7068C84.7561 47.4333 85.5094 47.138 86.2845 46.9301C86.6884 46.8207 87.125 46.8426 87.5508 46.8426C88.7407 46.8426 89.8324 47.2583 90.9568 47.5865C91.5899 47.7725 92.234 47.9694 92.8453 48.2319C93.7733 48.6367 93.9588 49.1071 93.7296 50.0916C93.6532 50.4089 93.5768 50.7261 93.5003 51.0433H93.3803L93.3693 51.0324Z" fill="white"/>
<path d="M75.9689 54.0625C75.9689 56.2394 75.9689 58.4163 75.9689 60.5933C75.9689 61.1184 76.089 61.5888 76.2746 62.0592C76.351 62.2451 76.362 62.4858 76.3401 62.6936C76.3401 62.7593 76.1436 62.8577 76.0345 62.8577C75.183 62.8577 74.3424 62.814 73.4909 62.803C72.9669 62.803 72.9451 62.7374 73.0542 62.2014C73.1416 61.8076 73.1961 61.4028 73.1961 60.998C73.2398 57.5193 73.2726 54.0406 73.2944 50.5619C73.2944 49.6758 73.2616 48.7897 73.0106 47.9255C72.8905 47.5426 73.0215 47.4004 73.4254 47.3457C74.004 47.2691 74.5825 47.1488 75.1611 47.0831C75.3685 47.0612 75.6087 47.1269 75.8052 47.2035C75.8707 47.2253 75.9144 47.4004 75.9144 47.4988C75.9144 49.457 75.9144 51.4151 75.9144 53.3733V54.0515C75.9144 54.0515 75.9362 54.0515 75.9471 54.0515L75.9689 54.0625Z" fill="white"/>
<path d="M34.5615 48.6365C34.7253 48.4067 34.8454 48.1004 35.0746 47.9692C35.6423 47.6519 36.2536 47.4222 36.8431 47.1596C36.8868 47.1378 36.9632 47.1596 36.9741 47.1268C37.1269 46.6893 37.4872 46.9299 37.7601 46.8862C38.5679 46.7658 39.3102 46.9956 40.0417 47.2909C41.1879 47.7613 41.963 48.5927 42.5525 49.6648C43.0546 50.5618 43.2839 51.5135 43.3931 52.5309C43.5022 53.5154 43.6769 54.489 43.7861 55.4736C43.8843 56.294 43.9171 57.1364 44.0044 57.9568C44.0699 58.646 44.179 59.3243 44.2664 60.0134C44.3428 60.5604 44.3974 61.0964 44.4847 61.6434C44.5284 61.9169 44.6703 62.1576 44.7467 62.431C44.8122 62.6936 44.583 62.8796 44.321 62.8686C43.6332 62.8467 42.9564 62.8358 42.2686 62.8577C41.3735 62.8905 41.3735 62.9452 41.4826 62.07C41.5591 61.4574 41.5372 60.823 41.5372 60.1994C41.5372 59.8603 41.5045 59.5212 41.4717 59.193C41.3844 58.1975 41.2862 57.202 41.1988 56.2065C41.1442 55.5611 41.1224 54.9047 41.0569 54.2593C40.9805 53.5154 40.915 52.7716 40.7731 52.0386C40.6312 51.2947 40.4783 50.5399 40.2163 49.8289C40.0089 49.2491 39.6705 48.6912 39.3212 48.177C39.0155 47.7394 38.5243 47.5425 37.9784 47.455C37.5636 47.3894 37.1488 47.3019 36.7558 47.4769C36.1553 47.7394 35.5768 48.0457 34.9982 48.3411C34.8563 48.4177 34.7471 48.5489 34.6161 48.6583C34.5943 48.6583 34.5834 48.6583 34.5615 48.6474V48.6365Z" fill="white"/>
<path d="M77.8898 11.4098C78.13 11.2785 82.3547 11.3114 83.8284 11.4864C83.3918 11.7489 83.0315 12.0005 82.6385 12.1974C80.7827 13.1164 79.2216 14.4181 77.726 15.8293C77.213 16.3107 76.6671 16.7482 76.1322 17.2077C75.7829 17.5031 75.4226 17.7984 75.0515 18.0828C74.9641 18.1485 74.855 18.1922 74.7567 18.236C74.7349 18.2141 74.724 18.1813 74.7021 18.1594C75.1497 17.689 75.6082 17.2077 76.0558 16.7373C76.5689 16.2013 77.1038 15.6981 77.5732 15.1292C78.13 14.451 78.4356 13.6414 78.3046 12.7444C78.2391 12.2959 78.0317 11.8583 77.8898 11.4098Z" fill="white"/>
<path d="M74.5381 41.1978C75.5206 41.1759 75.6843 41.4932 75.9136 42.5543C76.0227 43.0356 75.8372 43.4623 75.5315 43.8342C75.2586 44.1624 74.5053 44.3265 74.0905 44.1733C72.7041 43.6482 72.8133 42.1277 73.6648 41.4166C73.8722 41.2416 74.2433 41.2744 74.5381 41.2088V41.1978Z" fill="white"/>
<path d="M34.5076 48.8662C34.1037 49.6976 33.4269 50.3868 33.2959 51.3604C33.6561 50.5071 33.5361 49.4132 34.5076 48.8662Z" fill="white"/>
</g>
<defs>
<clipPath id="clip0_92_1127">
<rect width="111" height="63" fill="white"/>
</clipPath>
</defs>
</svg>
