<svg width="26" height="26" viewBox="0 0 26 26" fill="none" xmlns="http://www.w3.org/2000/svg">
<path d="M25.4662 23.1095C23.8595 20.2896 21.3507 18.0924 18.3435 16.8716C19.839 15.75 20.9436 14.1864 21.5009 12.4021C22.0583 10.6179 22.0401 8.70352 21.449 6.93018C20.8579 5.15684 19.7238 3.61444 18.2074 2.52146C16.6909 1.42848 14.8691 0.840332 12.9998 0.840332C11.1305 0.840332 9.30864 1.42848 7.79222 2.52146C6.27579 3.61444 5.1417 5.15684 4.55058 6.93018C3.95947 8.70352 3.9413 10.6179 4.49866 12.4021C5.05601 14.1864 6.16063 15.75 7.65604 16.8716C4.64892 18.0924 2.14008 20.2896 0.533386 23.1095C0.43383 23.2696 0.367476 23.448 0.338269 23.6343C0.309062 23.8205 0.317599 24.0107 0.363372 24.1936C0.409145 24.3764 0.491219 24.5483 0.604716 24.6988C0.718212 24.8493 0.860814 24.9755 1.02404 25.0698C1.18727 25.1641 1.3678 25.2246 1.55489 25.2477C1.74197 25.2709 1.93181 25.2562 2.1131 25.2045C2.29439 25.1528 2.46343 25.0652 2.61019 24.9469C2.75695 24.8285 2.87841 24.6819 2.96737 24.5157C5.09081 20.8454 8.84081 18.6563 12.9998 18.6563C17.1588 18.6563 20.9088 20.8466 23.0322 24.5157C23.225 24.8257 23.5308 25.0486 23.8849 25.1372C24.239 25.2259 24.6138 25.1733 24.9299 24.9907C25.246 24.8081 25.4786 24.5097 25.5787 24.1586C25.6788 23.8076 25.6385 23.4313 25.4662 23.1095ZM6.90604 9.7501C6.90604 8.54487 7.26343 7.3667 7.93302 6.36459C8.60261 5.36248 9.55433 4.58143 10.6678 4.12021C11.7813 3.65899 13.0066 3.53831 14.1886 3.77344C15.3707 4.00857 16.4565 4.58894 17.3087 5.44116C18.1609 6.29339 18.7413 7.37919 18.9765 8.56126C19.2116 9.74334 19.0909 10.9686 18.6297 12.0821C18.1685 13.1956 17.3874 14.1473 16.3853 14.8169C15.3832 15.4865 14.205 15.8438 12.9998 15.8438C11.3842 15.842 9.83531 15.1994 8.69292 14.057C7.55052 12.9146 6.9079 11.3657 6.90604 9.7501Z" fill="white"/>
</svg>
