<svg width="15" height="16" viewBox="0 0 15 16" fill="none" xmlns="http://www.w3.org/2000/svg">
<path d="M0.73447 9.51611C0.502997 9.33696 0.315623 9.10719 0.18671 8.8444C0.0577974 8.58162 -0.00922966 8.29281 -0.00922966 8.00011C-0.00922966 7.70741 0.0577974 7.41859 0.18671 7.15581C0.315623 6.89303 0.502997 6.66325 0.73447 6.48411C3.73193 4.16474 7.07903 2.33659 10.6505 1.06811L11.3035 0.836107C12.5515 0.393107 13.8705 1.23711 14.0395 2.52611C14.5116 6.16017 14.5116 9.84004 14.0395 13.4741C13.8695 14.7631 12.5515 15.6071 11.3035 15.1641L10.6505 14.9321C7.07903 13.6636 3.73193 11.8355 0.73447 9.51611Z" fill="#252525"/>
</svg>
