<svg width="26" height="27" viewBox="0 0 26 27" fill="none" xmlns="http://www.w3.org/2000/svg">
<path d="M24.2503 24.75L18.8215 19.3213M18.8215 19.3213C19.7501 18.3927 20.4867 17.2902 20.9893 16.0769C21.4918 14.8637 21.7505 13.5633 21.7505 12.25C21.7505 10.9368 21.4919 9.63637 20.9893 8.42308C20.4867 7.20979 19.7501 6.10737 18.8215 5.17876C17.8929 4.25015 16.7905 3.51354 15.5772 3.01098C14.3639 2.50842 13.0635 2.24976 11.7503 2.24976C10.437 2.24976 9.13661 2.50842 7.92332 3.01098C6.71004 3.51354 5.60762 4.25015 4.67901 5.17876C2.8036 7.05418 1.75 9.59778 1.75 12.25C1.75 14.9022 2.8036 17.4459 4.67901 19.3213C6.55442 21.1967 9.09802 22.2503 11.7503 22.2503C14.4025 22.2503 16.9461 21.1967 18.8215 19.3213Z" stroke="white" stroke-width="3" stroke-linecap="round" stroke-linejoin="round"/>
</svg>
