<svg width="23" height="22" viewBox="0 0 23 22" fill="none" xmlns="http://www.w3.org/2000/svg">
<path d="M21.1063 21.875C18.5889 21.875 16.1017 21.326 13.6448 20.228C11.1878 19.1301 8.95243 17.5745 6.93854 15.5615C4.92465 13.5476 3.36912 11.3122 2.27196 8.85521C1.17479 6.39826 0.625806 3.91111 0.625 1.39375C0.625 1.03125 0.745833 0.729167 0.9875 0.4875C1.22917 0.245833 1.53125 0.125 1.89375 0.125H6.7875C7.06945 0.125 7.32118 0.220861 7.54271 0.412583C7.76424 0.604305 7.89514 0.830667 7.93542 1.09167L8.72083 5.32083C8.76111 5.64306 8.75104 5.91493 8.69063 6.13646C8.63021 6.35799 8.51944 6.54931 8.35833 6.71042L5.42812 9.67083C5.8309 10.416 6.309 11.1357 6.86242 11.8301C7.41583 12.5245 8.02524 13.1943 8.69063 13.8396C9.31493 14.4639 9.96945 15.0431 10.6542 15.5772C11.3389 16.1113 12.0639 16.5994 12.8292 17.0417L15.6687 14.2021C15.85 14.0208 16.0868 13.8847 16.3793 13.7937C16.6717 13.7026 16.9584 13.6777 17.2396 13.7188L21.4083 14.5646C21.6903 14.6451 21.9219 14.7913 22.1031 15.0032C22.2844 15.2151 22.375 15.4515 22.375 15.7125V20.6063C22.375 20.9688 22.2542 21.2708 22.0125 21.5125C21.7708 21.7542 21.4688 21.875 21.1063 21.875Z" fill="#252525"/>
</svg>
