<svg width="28" height="24" viewBox="0 0 28 24" fill="none" xmlns="http://www.w3.org/2000/svg">
<path d="M0.0488298 20.0294C0.0488298 21.1319 0.412772 22.0696 1.14066 22.8423C1.86854 23.615 2.75464 24.0009 3.79896 24H23.8955C24.9399 24 25.826 23.6141 26.5538 22.8423C27.2817 22.0705 27.6457 21.1328 27.6457 20.0294V4.03653C27.6457 2.93395 27.2781 1.98555 26.5431 1.19133C25.808 0.397109 24.9255 0 23.8955 0H3.79896C2.76988 0 1.88736 0.397109 1.15141 1.19133C0.415461 1.98555 0.0479334 2.93395 0.0488298 4.03653V20.0294ZM10.0864 17.1398V6.9261C10.0864 6.82302 10.1159 6.74234 10.1751 6.68407C10.219 6.66973 10.2558 6.66256 10.2854 6.66256L10.3956 6.68407L20.0136 11.8017C20.0728 11.8608 20.1024 11.9343 20.1024 12.0222C20.1024 12.0813 20.0728 12.1401 20.0136 12.1983L10.3956 17.3159C10.366 17.3455 10.3365 17.3603 10.3069 17.3603C10.2477 17.3603 10.2038 17.3455 10.1751 17.3159C10.1159 17.2568 10.0864 17.198 10.0864 17.1398Z" fill="#8D7EA4"/>
</svg>
